# xmcd CD database file
#
# Track frame offsets:
#	187
#	19387
#	38599
#	57762
#
# Disc length: 1025 seconds
#
# Revision: 0
# Processed by: cddbd v1.5PL3 Copyright (c) Steve Scherf et al.
# Submitted via: CDex 1.40Release
#
DISCID=2903ff04
DTITLE=高橋由美子 - 友達でいいから
DYEAR=1900
DGENRE=Techno
TTITLE0=友達でいいから
TTITLE1=今度逢える時には
TTITLE2=友達でいいから（カラオケ）
TTITLE3=今度逢える時には（カラオケ）
EXTD=
EXTT0=
EXTT1=
EXTT2=
EXTT3=
PLAYORDER=
